<svg width="664" height="211" viewBox="0 0 664 211" fill="none" xmlns="http://www.w3.org/2000/svg">
<path d="M662.562 189.118C661.533 193.196 658.339 196.722 652.99 199.66C647.643 202.598 640.226 204.899 630.933 206.55C612.353 209.853 586.455 210.531 555.071 208.676C492.317 204.967 407.787 191.137 316.365 168.058C224.943 144.979 143.978 117.03 86.982 90.5084C58.4786 77.2451 36.0052 64.3548 21.2192 52.6295C13.8242 46.7652 8.38769 41.22 5.07527 36.0958C1.76237 30.9709 0.624633 26.3507 1.65399 22.2732C2.68334 18.1957 5.87772 14.6692 11.2262 11.7308C16.5738 8.79288 23.9909 6.49249 33.2834 4.84092C51.863 1.53868 77.7618 0.859884 109.145 2.71485C171.9 6.42404 256.43 20.2539 347.851 43.3332C439.273 66.4124 520.239 94.3614 577.234 120.883C605.738 134.146 628.211 147.036 642.997 158.762C650.392 164.626 655.829 170.171 659.141 175.295C662.454 180.42 663.592 185.041 662.562 189.118Z" stroke="#0B368A" stroke-width="1.5"/>
</svg>
